# xmcd
#
# Track frame offsets:
#	150
#	13733
#	27009
#	41299
#	54807
#	67748
#	80560
#	93787
#	106899
#	120159
#	133190
#	147673
#	161947
#	173818
#	186818
#	200013
#	212370
#	225912
#	239562
#	253682
#	267148
#	280545
#	294543
#
# Disc length: 4116 seconds
#
# Revision: 1
# Processed by: cddbd v1.5.2PL0 Copyright (c) Steve Scherf et al.
# Submitted via: audiograbber 1.83.01
#
DISCID=35101217
DTITLE=Edna Hicks - Vol. 1 (1923)
DYEAR=1996
DGENRE=Blues
TTITLE0=I'm Goin' Away (Just to Wear You Off My Mind) (tk. 3)
TTITLE1=Gulf Coast Blues
TTITLE2=Down Hearted Blues
TTITLE3=Sad 'n' Lonely Blues
TTITLE4=Bleeding Hearted Blues
TTITLE5=Walking and Talking Blues
TTITLE6=You've Got Everything a Sweet Mamma Needs but Me
TTITLE7=Tin Roof Blues
TTITLE8=Oh Daddy Blues
TTITLE9=Wicked Dirty Fives
TTITLE10=Squawkin' the Blues
TTITLE11=Satisfied Blues (A Barrel House Blues)
TTITLE12=No Name Blues (Some Blues) (8499)
TTITLE13=No Name Blues (81228)
TTITLE14=Just Thinkin'
TTITLE15='Tain't a Doggone Thing but the Blues
TTITLE16=Save Your Man and Satisfy Your Soul (81278)
TTITLE17=Mistreatin' Daddy
TTITLE18=Save Your Man and Satisfy Your Soul (Aj. 17008)
TTITLE19=Kansas City Man Blues
TTITLE20=Uncle Sam Blues
TTITLE21=Kind Lovin' Blues
TTITLE22=Goin' Home
EXTD=
EXTT0=
EXTT1=
EXTT2=
EXTT3=
EXTT4=
EXTT5=
EXTT6=
EXTT7=
EXTT8=
EXTT9=
EXTT10=
EXTT11=
EXTT12=
EXTT13=
EXTT14=
EXTT15=
EXTT16=
EXTT17=
EXTT18=
EXTT19=
EXTT20=
EXTT21=
EXTT22=
PLAYORDER=
